<svg width="48" height="52" viewBox="0 0 48 52" fill="none" xmlns="http://www.w3.org/2000/svg">
<mask id="path-1-inside-1" fill="white">
<path d="M43 28C43 39.0457 34.0457 48 23 48C11.9543 48 3 39.0457 3 28C3 16.9543 11.9543 8 23 8C34.0457 8 43 16.9543 43 28Z"/>
</mask>
<path d="M43 28C43 39.0457 34.0457 48 23 48C11.9543 48 3 39.0457 3 28C3 16.9543 11.9543 8 23 8C34.0457 8 43 16.9543 43 28Z" fill="#F4F7FA"/>
<path d="M42.6 28C42.6 38.8248 33.8248 47.6 23 47.6V48.4C34.2666 48.4 43.4 39.2666 43.4 28H42.6ZM23 47.6C12.1752 47.6 3.4 38.8248 3.4 28H2.6C2.6 39.2666 11.7334 48.4 23 48.4V47.6ZM3.4 28C3.4 17.1752 12.1752 8.4 23 8.4V7.6C11.7334 7.6 2.6 16.7334 2.6 28H3.4ZM23 8.4C33.8248 8.4 42.6 17.1752 42.6 28H43.4C43.4 16.7334 34.2666 7.6 23 7.6V8.4Z" fill="black" mask="url(#path-1-inside-1)"/>
<g clip-path="url(#clip0)">
<path d="M28.1994 30.7151L28.1995 30.7152C28.6065 31.02 28.6891 31.5971 28.3837 32.0028L28.3829 32.0038C28.203 32.2461 27.9278 32.3725 27.6458 32.3725C27.4534 32.3725 27.2604 32.3128 27.0945 32.1883L27.0945 32.1883L22.6117 28.8262L22.6113 28.8259C22.3799 28.6533 22.2435 28.38 22.2435 28.0897V21.3655C22.2435 20.8562 22.6549 20.4448 23.1642 20.4448C23.6735 20.4448 24.0849 20.8562 24.0849 21.3655V27.5293V27.6293L24.1649 27.6893L28.1994 30.7151Z" fill="#F4F7FA" stroke="black" stroke-width="0.4"/>
<path d="M8.89617 28C8.89617 20.1323 15.2965 13.7319 23.1643 13.7319C31.032 13.7319 37.4323 20.1323 37.4323 28C37.4323 35.8677 31.032 42.2681 23.1643 42.2681C15.2965 42.2681 8.89617 35.8677 8.89617 28ZM10.7375 28C10.7375 34.8514 16.3129 40.4267 23.1643 40.4267C30.0156 40.4267 35.591 34.8514 35.591 28C35.591 21.1486 30.0168 15.5733 23.1643 15.5733C16.3129 15.5733 10.7375 21.1486 10.7375 28Z" fill="#F4F7FA" stroke="black" stroke-width="0.4"/>
</g>
<mask id="path-6-inside-2" fill="white">
<path fill-rule="evenodd" clip-rule="evenodd" d="M29.7747 6.30193C34.9987 7.62446 38.9168 13.1357 38.9168 19.7337C38.9168 26.3317 34.9987 31.8429 29.7748 33.1655C30.7027 33.3633 31.6653 33.4674 32.6523 33.4674C40.2372 33.4674 46.386 27.3186 46.386 19.7337C46.386 12.1488 40.2372 5.99998 32.6523 5.99998C31.6653 5.99998 30.7027 6.10409 29.7747 6.30193Z"/>
</mask>
<path fill-rule="evenodd" clip-rule="evenodd" d="M29.7747 6.30193C34.9987 7.62446 38.9168 13.1357 38.9168 19.7337C38.9168 26.3317 34.9987 31.8429 29.7748 33.1655C30.7027 33.3633 31.6653 33.4674 32.6523 33.4674C40.2372 33.4674 46.386 27.3186 46.386 19.7337C46.386 12.1488 40.2372 5.99998 32.6523 5.99998C31.6653 5.99998 30.7027 6.10409 29.7747 6.30193Z" fill="#7247FF"/>
<path fill-rule="evenodd" clip-rule="evenodd" d="M29.7747 6.30193C34.9987 7.62446 38.9168 13.1357 38.9168 19.7337C38.9168 26.3317 34.9987 31.8429 29.7748 33.1655C30.7027 33.3633 31.6653 33.4674 32.6523 33.4674C40.2372 33.4674 46.386 27.3186 46.386 19.7337C46.386 12.1488 40.2372 5.99998 32.6523 5.99998C31.6653 5.99998 30.7027 6.10409 29.7747 6.30193Z" fill="url(#paint0_linear)"/>
<path d="M29.7747 6.30193L29.7121 6.00852L29.7011 6.59275L29.7747 6.30193ZM29.7748 33.1655L29.7012 32.8747L29.7122 33.4589L29.7748 33.1655ZM29.7011 6.59275C34.7646 7.87466 38.6168 13.2427 38.6168 19.7337H39.2168C39.2168 13.0288 35.2328 7.37426 29.8483 6.0111L29.7011 6.59275ZM38.6168 19.7337C38.6168 26.2247 34.7646 31.5927 29.7012 32.8747L29.8484 33.4563C35.2328 32.0931 39.2168 26.4386 39.2168 19.7337H38.6168ZM32.6523 33.1674C31.6865 33.1674 30.7448 33.0655 29.8373 32.8721L29.7122 33.4589C30.6606 33.6611 31.6442 33.7674 32.6523 33.7674V33.1674ZM46.086 19.7337C46.086 27.1529 40.0715 33.1674 32.6523 33.1674V33.7674C40.4029 33.7674 46.686 27.4843 46.686 19.7337H46.086ZM32.6523 6.29998C40.0715 6.29998 46.086 12.3145 46.086 19.7337H46.686C46.686 11.9831 40.4029 5.69998 32.6523 5.69998V6.29998ZM29.8372 6.59534C30.7448 6.40185 31.6864 6.29998 32.6523 6.29998V5.69998C31.6441 5.69998 30.6605 5.80633 29.7121 6.00852L29.8372 6.59534Z" fill="black" mask="url(#path-6-inside-2)"/>
<defs>
<linearGradient id="paint0_linear" x1="38.0803" y1="33.4674" x2="38.0803" y2="5.99998" gradientUnits="userSpaceOnUse">
<stop stop-color="#4614E8"/>
<stop offset="1" stop-color="#BCA7FF"/>
</linearGradient>
<clipPath id="clip0">
<rect x="8.69617" y="13.5319" width="28.9362" height="28.9362" fill="white"/>
</clipPath>
</defs>
</svg>
